<?xml version="1.0" encoding="UTF-8" standalone="no"?>
<!DOCTYPE svg PUBLIC "-//W3C//DTD SVG 1.1//EN"
 "http://www.w3.org/Graphics/SVG/1.1/DTD/svg11.dtd">
<!-- Generated by graphviz version 2.44.1 (20200629.0846)
 -->
<!-- Title: Sprinklerino Pages: 1 -->
<svg width="574pt" height="400pt"
 viewBox="0.00 0.00 574.31 400.00" xmlns="http://www.w3.org/2000/svg" xmlns:xlink="http://www.w3.org/1999/xlink">
<g id="graph0" class="graph" transform="scale(1 1) rotate(0) translate(4 396)">
<title>Sprinklerino</title>
<polygon fill="white" stroke="transparent" points="-4,4 -4,-396 570.31,-396 570.31,4 -4,4"/>
<!-- Wall -->
<g id="node1" class="node">
<title>Wall</title>
<polygon fill="none" stroke="black" points="403.5,-345.5 403.5,-391.5 503.5,-391.5 503.5,-345.5 403.5,-345.5"/>
<text text-anchor="middle" x="425" y="-364.8" font-family="Times,serif" font-size="14.00">Wall</text>
<polyline fill="none" stroke="black" points="446.5,-345.5 446.5,-391.5 "/>
<text text-anchor="middle" x="475" y="-376.3" font-family="Times,serif" font-size="14.00">Neutral</text>
<polyline fill="none" stroke="black" points="446.5,-368.5 503.5,-368.5 "/>
<text text-anchor="middle" x="475" y="-353.3" font-family="Times,serif" font-size="14.00">Live</text>
</g>
<!-- Relay -->
<g id="node3" class="node">
<title>Relay</title>
<polygon fill="none" stroke="black" points="311.5,-83.5 311.5,-152.5 485.5,-152.5 485.5,-83.5 311.5,-83.5"/>
<text text-anchor="middle" x="340.5" y="-137.3" font-family="Times,serif" font-size="14.00">Ground</text>
<polyline fill="none" stroke="black" points="311.5,-129.5 369.5,-129.5 "/>
<text text-anchor="middle" x="340.5" y="-114.3" font-family="Times,serif" font-size="14.00">In1</text>
<polyline fill="none" stroke="black" points="311.5,-106.5 369.5,-106.5 "/>
<text text-anchor="middle" x="340.5" y="-91.3" font-family="Times,serif" font-size="14.00">Vcc</text>
<polyline fill="none" stroke="black" points="369.5,-83.5 369.5,-152.5 "/>
<text text-anchor="middle" x="393.5" y="-114.3" font-family="Times,serif" font-size="14.00">Relay</text>
<polyline fill="none" stroke="black" points="417.5,-83.5 417.5,-152.5 "/>
<text text-anchor="middle" x="451.5" y="-137.3" font-family="Times,serif" font-size="14.00">N.C.</text>
<polyline fill="none" stroke="black" points="417.5,-129.5 485.5,-129.5 "/>
<text text-anchor="middle" x="451.5" y="-114.3" font-family="Times,serif" font-size="14.00">Common</text>
<polyline fill="none" stroke="black" points="417.5,-106.5 485.5,-106.5 "/>
<text text-anchor="middle" x="451.5" y="-91.3" font-family="Times,serif" font-size="14.00">N.O.</text>
</g>
<!-- Wall&#45;&#45;Relay -->
<g id="edge15" class="edge">
<title>Wall:live&#45;&#45;Relay:C</title>
<path fill="none" stroke="red" stroke-width="6" d="M475.5,-345C475.5,-319.75 511.75,-118 486.5,-118"/>
</g>
<!-- Pump -->
<g id="node4" class="node">
<title>Pump</title>
<polygon fill="none" stroke="black" points="454.5,-0.5 454.5,-46.5 560.5,-46.5 560.5,-0.5 454.5,-0.5"/>
<text text-anchor="middle" x="483" y="-31.3" font-family="Times,serif" font-size="14.00">Neutral</text>
<polyline fill="none" stroke="black" points="454.5,-23.5 511.5,-23.5 "/>
<text text-anchor="middle" x="483" y="-8.3" font-family="Times,serif" font-size="14.00">Live</text>
<polyline fill="none" stroke="black" points="511.5,-0.5 511.5,-46.5 "/>
<text text-anchor="middle" x="536" y="-19.8" font-family="Times,serif" font-size="14.00">Pump</text>
</g>
<!-- Wall&#45;&#45;Pump -->
<g id="edge17" class="edge">
<title>Wall:neutral&#45;&#45;Pump:Neutral</title>
<path fill="none" stroke="gray" stroke-width="6" d="M504.5,-380.5C636.8,-380.5 518.76,-213.05 494.5,-83 491.41,-66.42 482.5,-63.87 482.5,-47"/>
</g>
<!-- PowerBrick -->
<g id="node8" class="node">
<title>PowerBrick</title>
<polygon fill="none" stroke="black" points="447,-303.5 366,-303.5 366,-267.5 447,-267.5 447,-303.5"/>
<text text-anchor="middle" x="406.5" y="-281.8" font-family="Times,serif" font-size="14.00">PowerBrick</text>
</g>
<!-- Wall&#45;&#45;PowerBrick -->
<g id="edge1" class="edge">
<title>Wall:main&#45;&#45;PowerBrick</title>
<path fill="none" stroke="black" d="M424.5,-345C424.5,-330.65 419.49,-315.17 414.76,-303.74"/>
</g>
<!-- Arduino -->
<g id="node2" class="node">
<title>Arduino</title>
<polygon fill="none" stroke="black" points="29.5,-189.5 29.5,-225.5 437.5,-225.5 437.5,-189.5 29.5,-189.5"/>
<text text-anchor="middle" x="48.5" y="-203.8" font-family="Times,serif" font-size="14.00">Vcc</text>
<polyline fill="none" stroke="black" points="67.5,-189.5 67.5,-225.5 "/>
<text text-anchor="middle" x="99" y="-203.8" font-family="Times,serif" font-size="14.00">Analog0</text>
<polyline fill="none" stroke="black" points="130.5,-189.5 130.5,-225.5 "/>
<text text-anchor="middle" x="162" y="-203.8" font-family="Times,serif" font-size="14.00">Analog1</text>
<polyline fill="none" stroke="black" points="193.5,-189.5 193.5,-225.5 "/>
<text text-anchor="middle" x="225" y="-203.8" font-family="Times,serif" font-size="14.00">Analog2</text>
<polyline fill="none" stroke="black" points="256.5,-189.5 256.5,-225.5 "/>
<text text-anchor="middle" x="287" y="-203.8" font-family="Times,serif" font-size="14.00">Digital7</text>
<polyline fill="none" stroke="black" points="317.5,-189.5 317.5,-225.5 "/>
<text text-anchor="middle" x="346.5" y="-203.8" font-family="Times,serif" font-size="14.00">Ground</text>
<polyline fill="none" stroke="black" points="375.5,-189.5 375.5,-225.5 "/>
<text text-anchor="middle" x="406.5" y="-203.8" font-family="Times,serif" font-size="14.00">Arduino</text>
</g>
<!-- Arduino&#45;&#45;Relay -->
<g id="edge11" class="edge">
<title>Arduino:Vcc&#45;&#45;Relay:Vcc</title>
<path fill="none" stroke="red" d="M48.5,-189C48.5,-127.14 248.64,-95 310.5,-95"/>
</g>
<!-- Arduino&#45;&#45;Relay -->
<g id="edge12" class="edge">
<title>Arduino:GND&#45;&#45;Relay:GND</title>
<path fill="none" stroke="black" d="M346.5,-189C346.5,-166.68 320.75,-173.31 311.5,-153 309.28,-148.13 305.15,-141 310.5,-141"/>
</g>
<!-- Arduino&#45;&#45;Relay -->
<g id="edge13" class="edge">
<title>Arduino:D7&#45;&#45;Relay:In1</title>
<path fill="none" stroke="blue" stroke-width="2" d="M287.5,-189C287.5,-155.83 277.33,-118 310.5,-118"/>
</g>
<!-- Relay&#45;&#45;Pump -->
<g id="edge16" class="edge">
<title>Relay:NO&#45;&#45;Pump:Live</title>
<path fill="none" stroke="red" stroke-width="6" d="M486.5,-95C491.85,-95 487.57,-87.94 485.5,-83 477.34,-63.53 462.13,-66.69 454.5,-47 448.8,-32.28 437.72,-11.5 453.5,-11.5"/>
</g>
<!-- Knob1 -->
<g id="node5" class="node">
<title>Knob1</title>
<polygon fill="none" stroke="black" points="125.5,-262.5 125.5,-308.5 227.5,-308.5 227.5,-262.5 125.5,-262.5"/>
<text text-anchor="middle" x="176.5" y="-293.3" font-family="Times,serif" font-size="14.00">Knob1</text>
<polyline fill="none" stroke="black" points="125.5,-285.5 227.5,-285.5 "/>
<text text-anchor="middle" x="144.5" y="-270.3" font-family="Times,serif" font-size="14.00">Vcc</text>
<polyline fill="none" stroke="black" points="163.5,-262.5 163.5,-285.5 "/>
<text text-anchor="middle" x="175.5" y="-270.3" font-family="Times,serif" font-size="14.00">S</text>
<polyline fill="none" stroke="black" points="187.5,-262.5 187.5,-285.5 "/>
<text text-anchor="middle" x="207.5" y="-270.3" font-family="Times,serif" font-size="14.00">Gnd</text>
</g>
<!-- Knob1&#45;&#45;Arduino -->
<g id="edge2" class="edge">
<title>Knob1:Vcc&#45;&#45;Arduino:Vcc</title>
<path fill="none" stroke="red" d="M144.5,-262C144.5,-216.43 48.5,-271.57 48.5,-226"/>
</g>
<!-- Knob1&#45;&#45;Arduino -->
<g id="edge3" class="edge">
<title>Knob1:GND&#45;&#45;Arduino:GND</title>
<path fill="none" stroke="black" d="M207.5,-262C207.5,-198.18 346.5,-289.82 346.5,-226"/>
</g>
<!-- Knob1&#45;&#45;Arduino -->
<g id="edge4" class="edge">
<title>Knob1:Signal&#45;&#45;Arduino:A1</title>
<path fill="none" stroke="green" stroke-width="2" d="M175.5,-262C175.5,-244.83 161.5,-243.17 161.5,-226"/>
</g>
<!-- Knob2 -->
<g id="node6" class="node">
<title>Knob2</title>
<polygon fill="none" stroke="black" points="245.5,-262.5 245.5,-308.5 347.5,-308.5 347.5,-262.5 245.5,-262.5"/>
<text text-anchor="middle" x="296.5" y="-293.3" font-family="Times,serif" font-size="14.00">Knob2</text>
<polyline fill="none" stroke="black" points="245.5,-285.5 347.5,-285.5 "/>
<text text-anchor="middle" x="264.5" y="-270.3" font-family="Times,serif" font-size="14.00">Vcc</text>
<polyline fill="none" stroke="black" points="283.5,-262.5 283.5,-285.5 "/>
<text text-anchor="middle" x="295.5" y="-270.3" font-family="Times,serif" font-size="14.00">S</text>
<polyline fill="none" stroke="black" points="307.5,-262.5 307.5,-285.5 "/>
<text text-anchor="middle" x="327.5" y="-270.3" font-family="Times,serif" font-size="14.00">Gnd</text>
</g>
<!-- Knob2&#45;&#45;Arduino -->
<g id="edge5" class="edge">
<title>Knob2:Vcc&#45;&#45;Arduino:Vcc</title>
<path fill="none" stroke="red" d="M264.5,-262C264.5,-164.68 48.5,-323.32 48.5,-226"/>
</g>
<!-- Knob2&#45;&#45;Arduino -->
<g id="edge6" class="edge">
<title>Knob2:GND&#45;&#45;Arduino:GND</title>
<path fill="none" stroke="black" d="M327.5,-262C327.5,-243.91 346.5,-244.09 346.5,-226"/>
</g>
<!-- Knob2&#45;&#45;Arduino -->
<g id="edge7" class="edge">
<title>Knob2:Signal&#45;&#45;Arduino:A2</title>
<path fill="none" stroke="green" stroke-width="2" d="M295.5,-262C295.5,-226.62 224.5,-261.38 224.5,-226"/>
</g>
<!-- Sensor -->
<g id="node7" class="node">
<title>Sensor</title>
<polygon fill="none" stroke="black" points="0,-262.5 0,-308.5 107,-308.5 107,-262.5 0,-262.5"/>
<text text-anchor="middle" x="53.5" y="-293.3" font-family="Times,serif" font-size="14.00">Moisture Sensor</text>
<polyline fill="none" stroke="black" points="0,-285.5 107,-285.5 "/>
<text text-anchor="middle" x="19.5" y="-270.3" font-family="Times,serif" font-size="14.00">Vcc</text>
<polyline fill="none" stroke="black" points="39,-262.5 39,-285.5 "/>
<text text-anchor="middle" x="52" y="-270.3" font-family="Times,serif" font-size="14.00">S</text>
<polyline fill="none" stroke="black" points="65,-262.5 65,-285.5 "/>
<text text-anchor="middle" x="86" y="-270.3" font-family="Times,serif" font-size="14.00">Gnd</text>
</g>
<!-- Sensor&#45;&#45;Arduino -->
<g id="edge8" class="edge">
<title>Sensor:Vcc&#45;&#45;Arduino:Vcc</title>
<path fill="none" stroke="red" d="M19.5,-262C19.5,-241.45 48.5,-246.55 48.5,-226"/>
</g>
<!-- Sensor&#45;&#45;Arduino -->
<g id="edge9" class="edge">
<title>Sensor:GND&#45;&#45;Arduino:GND</title>
<path fill="none" stroke="black" d="M108.5,-273.5C114.73,-273.5 111.22,-265.3 116.5,-262 160.36,-234.56 346.5,-277.73 346.5,-226"/>
</g>
<!-- Sensor&#45;&#45;Arduino -->
<g id="edge10" class="edge">
<title>Sensor:Signal&#45;&#45;Arduino:A0</title>
<path fill="none" stroke="green" stroke-width="2" d="M51.5,-262C51.5,-235.69 98.5,-252.31 98.5,-226"/>
</g>
<!-- PowerBrick&#45;&#45;Arduino -->
<g id="edge14" class="edge">
<title>PowerBrick&#45;&#45;Arduino:Power</title>
<path fill="none" stroke="purple" d="M406.5,-267.35C406.5,-255.69 406.5,-239.91 406.5,-226"/>
</g>
</g>
</svg>
