<svg xmlns="http://www.w3.org/2000/svg" viewBox="0 0 542 283">
  <defs/>
  <g class="graph" transform="translate(4 279)">
    <path fill="#fff" stroke="transparent" d="M-4 4v-283h541V4H-4z"/>
    <g class="node">
      <path fill="none" stroke="#000" d="M72-156v-36h408v36H72z"/>
      <text x="91" y="-170" font-family="Times,serif" font-size="14" text-anchor="middle">
        Vcc
      </text>
      <path fill="none" stroke="#000" d="M110-156v-36"/>
      <text x="142" y="-170" font-family="Times,serif" font-size="14" text-anchor="middle">
        Analog0
      </text>
      <path fill="none" stroke="#000" d="M173-156v-36"/>
      <text x="205" y="-170" font-family="Times,serif" font-size="14" text-anchor="middle">
        Analog1
      </text>
      <path fill="none" stroke="#000" d="M236-156v-36"/>
      <text x="268" y="-170" font-family="Times,serif" font-size="14" text-anchor="middle">
        Analog2
      </text>
      <path fill="none" stroke="#000" d="M299-156v-36"/>
      <text x="330" y="-170" font-family="Times,serif" font-size="14" text-anchor="middle">
        Digital7
      </text>
      <path fill="none" stroke="#000" d="M360-156v-36"/>
      <text x="389" y="-170" font-family="Times,serif" font-size="14" text-anchor="middle">
        Ground
      </text>
      <path fill="none" stroke="#000" d="M418-156v-36"/>
      <text x="449" y="-170" font-family="Times,serif" font-size="14" text-anchor="middle">
        Arduino
      </text>
    </g>
    <g class="node">
      <path fill="none" stroke="#000" d="M259-73v-46h249v46H259z"/>
      <text x="283" y="-92" font-family="Times,serif" font-size="14" text-anchor="middle">
        Relay
      </text>
      <path fill="none" stroke="#000" d="M307-73v-46"/>
      <text x="332" y="-92" font-family="Times,serif" font-size="14" text-anchor="middle">
        Signal
      </text>
      <path fill="none" stroke="#000" d="M358-73v-46"/>
      <text x="387" y="-92" font-family="Times,serif" font-size="14" text-anchor="middle">
        Ground
      </text>
      <path fill="none" stroke="#000" d="M416-73v-46"/>
      <text x="462" y="-103" font-family="Times,serif" font-size="14" text-anchor="middle">
        Always On
      </text>
      <path fill="none" stroke="#000" d="M416-96h92"/>
      <text x="462" y="-80" font-family="Times,serif" font-size="14" text-anchor="middle">
        Normally Off
      </text>
    </g>
    <g class="edge">
      <path fill="none" stroke="#000" d="M389-155l-2 36"/>
    </g>
    <g class="edge">
      <path fill="none" stroke="#00f" stroke-width="2" d="M330-155l2 36"/>
    </g>
    <g class="node">
      <path fill="none" stroke="#000" d="M489-36h-54V0h54v-36z"/>
      <text x="462" y="-14" font-family="Times,serif" font-size="14" text-anchor="middle">
        Pump
      </text>
    </g>
    <g class="edge">
      <path fill="none" stroke="#000" stroke-width="6" d="M462-72v36"/>
    </g>
    <g class="node">
      <path fill="none" stroke="#000" d="M187-229v-46h102v46H187z"/>
      <text x="238" y="-259" font-family="Times,serif" font-size="14" text-anchor="middle">
        Knob1
      </text>
      <path fill="none" stroke="#000" d="M187-252h102"/>
      <text x="206" y="-236" font-family="Times,serif" font-size="14" text-anchor="middle">
        Vcc
      </text>
      <path fill="none" stroke="#000" d="M225-229v-23"/>
      <text x="237" y="-236" font-family="Times,serif" font-size="14" text-anchor="middle">
        S
      </text>
      <path fill="none" stroke="#000" d="M249-229v-23"/>
      <text x="269" y="-236" font-family="Times,serif" font-size="14" text-anchor="middle">
        Gnd
      </text>
    </g>
    <g class="edge">
      <path fill="none" stroke="red" d="M206-228c0 54-115-18-115 36"/>
    </g>
    <g class="edge">
      <path fill="none" stroke="#000" d="M269-228c0 56 120-20 120 36"/>
    </g>
    <g class="edge">
      <path fill="none" stroke="green" stroke-width="2" d="M237-228c0 22-33 14-33 36"/>
    </g>
    <g class="node">
      <path fill="none" stroke="#000" d="M307-229v-46h102v46H307z"/>
      <text x="358" y="-259" font-family="Times,serif" font-size="14" text-anchor="middle">
        Knob2
      </text>
      <path fill="none" stroke="#000" d="M307-252h102"/>
      <text x="326" y="-236" font-family="Times,serif" font-size="14" text-anchor="middle">
        Vcc
      </text>
      <path fill="none" stroke="#000" d="M345-229v-23"/>
      <text x="357" y="-236" font-family="Times,serif" font-size="14" text-anchor="middle">
        S
      </text>
      <path fill="none" stroke="#000" d="M369-229v-23"/>
      <text x="389" y="-236" font-family="Times,serif" font-size="14" text-anchor="middle">
        Gnd
      </text>
    </g>
    <g class="edge">
      <path fill="none" stroke="red" d="M306-239c-6 0-3 8-8 11-39 25-207-11-207 36"/>
    </g>
    <g class="edge">
      <path fill="none" stroke="#000" d="M389-228v36"/>
    </g>
    <g class="edge">
      <path fill="none" stroke="green" stroke-width="2" d="M357-228c0 43-90-7-90 36"/>
    </g>
    <g class="node">
      <path fill="none" stroke="#000" d="M62-229v-46h107v46H62z"/>
      <text x="115" y="-259" font-family="Times,serif" font-size="14" text-anchor="middle">
        Moisture Sensor
      </text>
      <path fill="none" stroke="#000" d="M62-252h107"/>
      <text x="81" y="-236" font-family="Times,serif" font-size="14" text-anchor="middle">
        Vcc
      </text>
      <path fill="none" stroke="#000" d="M101-229v-23"/>
      <text x="114" y="-236" font-family="Times,serif" font-size="14" text-anchor="middle">
        S
      </text>
      <path fill="none" stroke="#000" d="M127-229v-23"/>
      <text x="148" y="-236" font-family="Times,serif" font-size="14" text-anchor="middle">
        Gnd
      </text>
    </g>
    <g class="edge">
      <path fill="none" stroke="red" d="M81-228c0 17 10 19 10 36"/>
    </g>
    <g class="edge">
      <path fill="none" stroke="#000" d="M170-239c6 0 3 8 8 11 40 26 211-12 211 36"/>
    </g>
    <g class="edge">
      <path fill="none" stroke="green" stroke-width="2" d="M113-228c0 20 28 16 28 36"/>
    </g>
    <g class="node">
      <path fill="none" stroke="#000" d="M54-192H0v36h54v-36z"/>
      <text x="27" y="-170" font-family="Times,serif" font-size="14" text-anchor="middle">
        Wall
      </text>
    </g>
    <g class="edge">
      <path fill="none" stroke="#000" stroke-width="6" d="M54-157c42 23 126 62 203 62"/>
    </g>
    <g class="node">
      <path fill="none" stroke="#000" d="M529-270h-81v36h81v-36z"/>
      <text x="488" y="-248" font-family="Times,serif" font-size="14" text-anchor="middle">
        PowerBrick
      </text>
    </g>
    <g class="edge">
      <path fill="none" stroke="purple" d="M469-233c-10 10-20 25-20 41"/>
    </g>
    <g class="edge">
      <path fill="none" stroke="#000" stroke-width="6" d="M498-233c20 38 61 126 11 126"/>
    </g>
  </g>
</svg>