<?xml version="1.0" encoding="UTF-8" standalone="no"?>
<!DOCTYPE svg PUBLIC "-//W3C//DTD SVG 1.1//EN"
 "http://www.w3.org/Graphics/SVG/1.1/DTD/svg11.dtd">
<!-- Generated by graphviz version 2.44.1 (20200629.0846)
 -->
<!-- Title: Sprinklerino Pages: 1 -->
<svg width="541pt" height="283pt"
 viewBox="0.00 0.00 541.19 283.00" xmlns="http://www.w3.org/2000/svg" xmlns:xlink="http://www.w3.org/1999/xlink">
<g id="graph0" class="graph" transform="scale(1 1) rotate(0) translate(4 279)">
<title>Sprinklerino</title>
<polygon fill="white" stroke="transparent" points="-4,4 -4,-279 537.19,-279 537.19,4 -4,4"/>
<!-- Arduino -->
<g id="node1" class="node">
<title>Arduino</title>
<polygon fill="none" stroke="black" points="72,-155.5 72,-191.5 480,-191.5 480,-155.5 72,-155.5"/>
<text text-anchor="middle" x="91" y="-169.8" font-family="Times,serif" font-size="14.00">Vcc</text>
<polyline fill="none" stroke="black" points="110,-155.5 110,-191.5 "/>
<text text-anchor="middle" x="141.5" y="-169.8" font-family="Times,serif" font-size="14.00">Analog0</text>
<polyline fill="none" stroke="black" points="173,-155.5 173,-191.5 "/>
<text text-anchor="middle" x="204.5" y="-169.8" font-family="Times,serif" font-size="14.00">Analog1</text>
<polyline fill="none" stroke="black" points="236,-155.5 236,-191.5 "/>
<text text-anchor="middle" x="267.5" y="-169.8" font-family="Times,serif" font-size="14.00">Analog2</text>
<polyline fill="none" stroke="black" points="299,-155.5 299,-191.5 "/>
<text text-anchor="middle" x="329.5" y="-169.8" font-family="Times,serif" font-size="14.00">Digital7</text>
<polyline fill="none" stroke="black" points="360,-155.5 360,-191.5 "/>
<text text-anchor="middle" x="389" y="-169.8" font-family="Times,serif" font-size="14.00">Ground</text>
<polyline fill="none" stroke="black" points="418,-155.5 418,-191.5 "/>
<text text-anchor="middle" x="449" y="-169.8" font-family="Times,serif" font-size="14.00">Arduino</text>
</g>
<!-- Relay -->
<g id="node2" class="node">
<title>Relay</title>
<polygon fill="none" stroke="black" points="258.5,-72.5 258.5,-118.5 507.5,-118.5 507.5,-72.5 258.5,-72.5"/>
<text text-anchor="middle" x="282.5" y="-91.8" font-family="Times,serif" font-size="14.00">Relay</text>
<polyline fill="none" stroke="black" points="306.5,-72.5 306.5,-118.5 "/>
<text text-anchor="middle" x="332" y="-91.8" font-family="Times,serif" font-size="14.00">Signal</text>
<polyline fill="none" stroke="black" points="357.5,-72.5 357.5,-118.5 "/>
<text text-anchor="middle" x="386.5" y="-91.8" font-family="Times,serif" font-size="14.00">Ground</text>
<polyline fill="none" stroke="black" points="415.5,-72.5 415.5,-118.5 "/>
<text text-anchor="middle" x="461.5" y="-103.3" font-family="Times,serif" font-size="14.00">Always On</text>
<polyline fill="none" stroke="black" points="415.5,-95.5 507.5,-95.5 "/>
<text text-anchor="middle" x="461.5" y="-80.3" font-family="Times,serif" font-size="14.00">Normally Off</text>
</g>
<!-- Arduino&#45;&#45;Relay -->
<g id="edge13" class="edge">
<title>Arduino:GND&#45;&#45;Relay:GND</title>
<path fill="none" stroke="black" d="M389,-155C389,-138.98 387,-135.02 387,-119"/>
</g>
<!-- Arduino&#45;&#45;Relay -->
<g id="edge14" class="edge">
<title>Arduino:D7&#45;&#45;Relay:Signal</title>
<path fill="none" stroke="blue" stroke-width="2" d="M330,-155C330,-138.98 332,-135.02 332,-119"/>
</g>
<!-- Pump -->
<g id="node8" class="node">
<title>Pump</title>
<polygon fill="none" stroke="black" points="489,-36 435,-36 435,0 489,0 489,-36"/>
<text text-anchor="middle" x="462" y="-14.3" font-family="Times,serif" font-size="14.00">Pump</text>
</g>
<!-- Relay&#45;&#45;Pump -->
<g id="edge15" class="edge">
<title>Relay:NOff&#45;&#45;Pump</title>
<path fill="none" stroke="black" stroke-width="6" d="M462,-72C462,-60.04 462,-46.56 462,-36.19"/>
</g>
<!-- Knob1 -->
<g id="node3" class="node">
<title>Knob1</title>
<polygon fill="none" stroke="black" points="187,-228.5 187,-274.5 289,-274.5 289,-228.5 187,-228.5"/>
<text text-anchor="middle" x="238" y="-259.3" font-family="Times,serif" font-size="14.00">Knob1</text>
<polyline fill="none" stroke="black" points="187,-251.5 289,-251.5 "/>
<text text-anchor="middle" x="206" y="-236.3" font-family="Times,serif" font-size="14.00">Vcc</text>
<polyline fill="none" stroke="black" points="225,-228.5 225,-251.5 "/>
<text text-anchor="middle" x="237" y="-236.3" font-family="Times,serif" font-size="14.00">S</text>
<polyline fill="none" stroke="black" points="249,-228.5 249,-251.5 "/>
<text text-anchor="middle" x="269" y="-236.3" font-family="Times,serif" font-size="14.00">Gnd</text>
</g>
<!-- Knob1&#45;&#45;Arduino -->
<g id="edge4" class="edge">
<title>Knob1:Vcc&#45;&#45;Arduino:Vcc</title>
<path fill="none" stroke="red" d="M206,-228C206,-174.44 91,-245.56 91,-192"/>
</g>
<!-- Knob1&#45;&#45;Arduino -->
<g id="edge5" class="edge">
<title>Knob1:GND&#45;&#45;Arduino:GND</title>
<path fill="none" stroke="black" d="M269,-228C269,-172.32 389,-247.68 389,-192"/>
</g>
<!-- Knob1&#45;&#45;Arduino -->
<g id="edge6" class="edge">
<title>Knob1:Signal&#45;&#45;Arduino:A1</title>
<path fill="none" stroke="green" stroke-width="2" d="M237,-228C237,-206.29 204,-213.71 204,-192"/>
</g>
<!-- Knob2 -->
<g id="node4" class="node">
<title>Knob2</title>
<polygon fill="none" stroke="black" points="307,-228.5 307,-274.5 409,-274.5 409,-228.5 307,-228.5"/>
<text text-anchor="middle" x="358" y="-259.3" font-family="Times,serif" font-size="14.00">Knob2</text>
<polyline fill="none" stroke="black" points="307,-251.5 409,-251.5 "/>
<text text-anchor="middle" x="326" y="-236.3" font-family="Times,serif" font-size="14.00">Vcc</text>
<polyline fill="none" stroke="black" points="345,-228.5 345,-251.5 "/>
<text text-anchor="middle" x="357" y="-236.3" font-family="Times,serif" font-size="14.00">S</text>
<polyline fill="none" stroke="black" points="369,-228.5 369,-251.5 "/>
<text text-anchor="middle" x="389" y="-236.3" font-family="Times,serif" font-size="14.00">Gnd</text>
</g>
<!-- Knob2&#45;&#45;Arduino -->
<g id="edge7" class="edge">
<title>Knob2:Vcc&#45;&#45;Arduino:Vcc</title>
<path fill="none" stroke="red" d="M306,-239.5C299.77,-239.5 303.25,-231.35 298,-228 258.63,-202.9 91,-238.69 91,-192"/>
</g>
<!-- Knob2&#45;&#45;Arduino -->
<g id="edge8" class="edge">
<title>Knob2:GND&#45;&#45;Arduino:GND</title>
<path fill="none" stroke="black" d="M389,-228C389,-212 389,-208 389,-192"/>
</g>
<!-- Knob2&#45;&#45;Arduino -->
<g id="edge9" class="edge">
<title>Knob2:Signal&#45;&#45;Arduino:A2</title>
<path fill="none" stroke="green" stroke-width="2" d="M357,-228C357,-184.92 267,-235.08 267,-192"/>
</g>
<!-- Sensor -->
<g id="node5" class="node">
<title>Sensor</title>
<polygon fill="none" stroke="black" points="61.5,-228.5 61.5,-274.5 168.5,-274.5 168.5,-228.5 61.5,-228.5"/>
<text text-anchor="middle" x="115" y="-259.3" font-family="Times,serif" font-size="14.00">Moisture Sensor</text>
<polyline fill="none" stroke="black" points="61.5,-251.5 168.5,-251.5 "/>
<text text-anchor="middle" x="81" y="-236.3" font-family="Times,serif" font-size="14.00">Vcc</text>
<polyline fill="none" stroke="black" points="100.5,-228.5 100.5,-251.5 "/>
<text text-anchor="middle" x="113.5" y="-236.3" font-family="Times,serif" font-size="14.00">S</text>
<polyline fill="none" stroke="black" points="126.5,-228.5 126.5,-251.5 "/>
<text text-anchor="middle" x="147.5" y="-236.3" font-family="Times,serif" font-size="14.00">Gnd</text>
</g>
<!-- Sensor&#45;&#45;Arduino -->
<g id="edge10" class="edge">
<title>Sensor:Vcc&#45;&#45;Arduino:Vcc</title>
<path fill="none" stroke="red" d="M81,-228C81,-211.39 91,-208.61 91,-192"/>
</g>
<!-- Sensor&#45;&#45;Arduino -->
<g id="edge11" class="edge">
<title>Sensor:GND&#45;&#45;Arduino:GND</title>
<path fill="none" stroke="black" d="M170,-239.5C176.23,-239.5 172.74,-231.34 178,-228 218.15,-202.49 389,-239.57 389,-192"/>
</g>
<!-- Sensor&#45;&#45;Arduino -->
<g id="edge12" class="edge">
<title>Sensor:Signal&#45;&#45;Arduino:A0</title>
<path fill="none" stroke="green" stroke-width="2" d="M113,-228C113,-207.73 141,-212.27 141,-192"/>
</g>
<!-- Wall -->
<g id="node6" class="node">
<title>Wall</title>
<polygon fill="none" stroke="black" points="54,-191.5 0,-191.5 0,-155.5 54,-155.5 54,-191.5"/>
<text text-anchor="middle" x="27" y="-169.8" font-family="Times,serif" font-size="14.00">Wall</text>
</g>
<!-- Wall&#45;&#45;Relay -->
<g id="edge1" class="edge">
<title>Wall&#45;&#45;Relay:PowerIn</title>
<path fill="none" stroke="black" stroke-width="6" d="M54.33,-156.92C96.44,-134.42 180.36,-95.5 257,-95.5"/>
</g>
<!-- PowerBrick -->
<g id="node7" class="node">
<title>PowerBrick</title>
<polygon fill="none" stroke="black" points="528.5,-269.5 447.5,-269.5 447.5,-233.5 528.5,-233.5 528.5,-269.5"/>
<text text-anchor="middle" x="488" y="-247.8" font-family="Times,serif" font-size="14.00">PowerBrick</text>
</g>
<!-- PowerBrick&#45;&#45;Arduino -->
<g id="edge3" class="edge">
<title>PowerBrick&#45;&#45;Arduino:Power</title>
<path fill="none" stroke="purple" d="M468.96,-233.47C459.06,-222.71 449,-207.87 449,-192"/>
</g>
<!-- PowerBrick&#45;&#45;Relay -->
<g id="edge2" class="edge">
<title>PowerBrick&#45;&#45;Relay:AOn</title>
<path fill="none" stroke="black" stroke-width="6" d="M497.63,-233.25C517.93,-195.22 559.31,-107.5 509,-107.5"/>
</g>
</g>
</svg>
